<svg width="16" height="16" viewBox="0 0 16 16" fill="none" xmlns="http://www.w3.org/2000/svg">
<g clip-path="url(#clip0_363_112)">
<path d="M11.3333 15.1666H4.66665C2.23331 15.1666 0.833313 13.7666 0.833313 11.3333V7.99996C0.833313 5.56663 2.23331 4.16663 4.66665 4.16663H11.3333C13.7666 4.16663 15.1666 5.56663 15.1666 7.99996V11.3333C15.1666 13.7666 13.7666 15.1666 11.3333 15.1666ZM4.66665 5.16663C2.75998 5.16663 1.83331 6.09329 1.83331 7.99996V11.3333C1.83331 13.24 2.75998 14.1666 4.66665 14.1666H11.3333C13.24 14.1666 14.1666 13.24 14.1666 11.3333V7.99996C14.1666 6.09329 13.24 5.16663 11.3333 5.16663H4.66665Z" fill="white"/>
<path d="M12 3.5H4C3.72667 3.5 3.5 3.27333 3.5 3C3.5 2.72667 3.72667 2.5 4 2.5H12C12.2733 2.5 12.5 2.72667 12.5 3C12.5 3.27333 12.2733 3.5 12 3.5Z" fill="white"/>
<path d="M10 1.83337H6C5.72667 1.83337 5.5 1.60671 5.5 1.33337C5.5 1.06004 5.72667 0.833374 6 0.833374H10C10.2733 0.833374 10.5 1.06004 10.5 1.33337C10.5 1.60671 10.2733 1.83337 10 1.83337Z" fill="white"/>
<path d="M5.92633 13.2407C5.14633 13.2407 4.513 12.6074 4.513 11.8274C4.513 11.0474 5.14633 10.4141 5.92633 10.4141C6.70631 10.4141 7.33965 11.0474 7.33965 11.8274C7.33965 12.6074 6.70631 13.2407 5.92633 13.2407ZM5.92633 11.4141C5.69967 11.4141 5.513 11.6007 5.513 11.8274C5.513 12.0541 5.69967 12.2407 5.92633 12.2407C6.153 12.2407 6.33966 12.0541 6.33966 11.8274C6.33966 11.6007 6.153 11.4141 5.92633 11.4141Z" fill="white"/>
<path d="M6.83856 12.3268C6.56523 12.3268 6.33856 12.1001 6.33856 11.8268V8.15344C6.33856 7.56677 6.70522 7.09344 7.26522 6.9401L9.09189 6.44011C9.67189 6.28011 10.0386 6.43347 10.2386 6.59347C10.4386 6.74677 10.6786 7.0601 10.6786 7.65344V11.2201C10.6786 11.4934 10.4519 11.7201 10.1786 11.7201C9.90522 11.7201 9.67856 11.4934 9.67856 11.2201V7.65344C9.67856 7.46677 9.63856 7.39344 9.62522 7.38677C9.61189 7.3801 9.53189 7.35344 9.34522 7.40677L7.52522 7.90677C7.35856 7.95344 7.33189 8.06677 7.33189 8.1601V11.8334C7.33856 12.1001 7.11189 12.3268 6.83856 12.3268Z" fill="white"/>
<path d="M9.27271 12.6339C8.49271 12.6339 7.85938 12.0006 7.85938 11.2206C7.85938 10.4406 8.49271 9.80725 9.27271 9.80725C10.0527 9.80725 10.686 10.4406 10.686 11.2206C10.686 12.0006 10.0527 12.6339 9.27271 12.6339ZM9.27271 10.8073C9.04604 10.8073 8.85937 10.9939 8.85937 11.2206C8.85937 11.4473 9.04604 11.6339 9.27271 11.6339C9.49937 11.6339 9.68604 11.4473 9.68604 11.2206C9.68604 10.9939 9.49937 10.8073 9.27271 10.8073Z" fill="white"/>
<path d="M6.83898 9.72108C6.61896 9.72108 6.41894 9.57441 6.35894 9.35441C6.2856 9.08775 6.44562 8.81441 6.71232 8.74108L10.0523 7.82775C10.3256 7.75441 10.5923 7.91441 10.6656 8.18108C10.739 8.44775 10.5789 8.72108 10.3122 8.79441L6.97232 9.70775C6.92565 9.71441 6.88565 9.72108 6.83898 9.72108Z" fill="white"/>
</g>
<defs>
<clipPath id="clip0_363_112">
<rect width="16" height="16" fill="white"/>
</clipPath>
</defs>
</svg>
