<svg width="12" height="14" viewBox="0 0 12 14" fill="none" xmlns="http://www.w3.org/2000/svg">
<path fill-rule="evenodd" clip-rule="evenodd" d="M10.4714 4.8642C10.4714 5.70151 10.6926 6.19498 11.1796 6.76371C11.5487 7.18271 11.6666 7.72051 11.6666 8.30398C11.6666 8.88678 11.4752 9.44005 11.0915 9.88925C10.5893 10.4278 9.88098 10.7715 9.15811 10.8313C8.11058 10.9206 7.06245 10.9958 6.00031 10.9958C4.93751 10.9958 3.89001 10.9508 2.84248 10.8313C2.11895 10.7715 1.41066 10.4278 0.909093 9.88925C0.52546 9.44005 0.333313 8.88678 0.333313 8.30398C0.333313 7.72051 0.451913 7.18271 0.820306 6.76371C1.32254 6.19498 1.52926 5.70151 1.52926 4.8642V4.58018C1.52926 3.45887 1.80887 2.72566 2.38465 2.00789C3.24069 0.961113 4.61288 0.333313 5.97051 0.333313H6.03011C7.41691 0.333313 8.83345 0.991326 9.67498 2.08309C10.2209 2.78609 10.4714 3.48841 10.4714 4.58018V4.8642ZM4.04909 12.3738C4.04909 12.0382 4.35719 11.8844 4.6421 11.8186C4.97538 11.7481 7.00618 11.7481 7.33945 11.8186C7.62438 11.8844 7.93245 12.0382 7.93245 12.3738C7.91585 12.6934 7.72838 12.9768 7.46931 13.1568C7.13338 13.4186 6.73918 13.5844 6.32705 13.6442C6.09911 13.6738 5.87518 13.6744 5.65518 13.6442C5.24238 13.5844 4.84818 13.4186 4.5129 13.1561C4.25317 12.9768 4.06566 12.6934 4.04909 12.3738Z" fill="white"/>
</svg>
