<svg width="16" height="16" viewBox="0 0 16 16" fill="none" xmlns="http://www.w3.org/2000/svg">
<g clip-path="url(#clip0_363_111)">
<path d="M8.00002 15.3333C3.94993 15.3333 0.666687 12.05 0.666687 7.99996C0.666687 3.94987 3.94993 0.666626 8.00002 0.666626C12.0501 0.666626 15.3334 3.94987 15.3334 7.99996C15.3334 12.05 12.0501 15.3333 8.00002 15.3333ZM8.00002 14C11.3137 14 14 11.3137 14 7.99996C14 4.68625 11.3137 1.99996 8.00002 1.99996C4.68631 1.99996 2.00002 4.68625 2.00002 7.99996C2.00002 11.3137 4.68631 14 8.00002 14ZM8.00002 10.6666C6.52726 10.6666 5.33335 9.47272 5.33335 7.99996C5.33335 6.5272 6.52726 5.33329 8.00002 5.33329C9.47278 5.33329 10.6667 6.5272 10.6667 7.99996C10.6667 9.47272 9.47278 10.6666 8.00002 10.6666ZM8.00002 9.33329C8.7364 9.33329 9.33335 8.73634 9.33335 7.99996C9.33335 7.26358 8.7364 6.66663 8.00002 6.66663C7.26364 6.66663 6.66669 7.26358 6.66669 7.99996C6.66669 8.73634 7.26364 9.33329 8.00002 9.33329ZM12.6204 6.08593C12.7614 6.42604 12.6 6.81608 12.2599 6.95711C11.9198 7.09814 11.5298 6.93675 11.3887 6.59664C11.2044 6.15203 10.9333 5.74783 10.5927 5.40723C9.90912 4.72361 8.98631 4.33329 8.00002 4.33329C7.63183 4.33329 7.33335 4.03482 7.33335 3.66663C7.33335 3.29844 7.63183 2.99996 8.00002 2.99996C9.34357 2.99996 10.6044 3.53323 11.5356 4.46443C11.9994 4.92825 12.3688 5.47912 12.6204 6.08593Z" fill="white"/>
</g>
<defs>
<clipPath id="clip0_363_111">
<rect width="16" height="16" fill="white"/>
</clipPath>
</defs>
</svg>
