<svg width="16" height="16" viewBox="0 0 16 16" fill="none" xmlns="http://www.w3.org/2000/svg">
<path d="M2.61414 6.26467C2.76425 5.88008 3.22426 5.72299 3.57824 5.93543C4.01205 6.19578 4.49668 6.33334 5 6.33334C6.64328 6.33334 8 4.85329 8 3.00001C8 2.55038 7.92 2.11435 7.76688 1.70998C7.55904 1.16107 8.11068 0.630852 8.65093 0.860267C11.3668 2.01354 14 5.91862 14 9.33334C14 13.0976 11.553 15.3333 8 15.3333C4.44705 15.3333 2 13.0976 2 9.33334C2 8.32768 2.21426 7.28925 2.61414 6.26467ZM3.33333 9.33334C3.33333 12.333 5.1579 14 8 14C10.8421 14 12.6667 12.333 12.6667 9.33334C12.6667 6.97735 11.116 4.25229 9.33032 2.82454C9.33233 2.88288 9.33333 2.94137 9.33333 3.00001C9.33333 5.56501 7.40681 7.66668 5 7.66668C4.52588 7.66668 4.0625 7.58442 3.62411 7.42659C3.43289 8.0748 3.33333 8.71639 3.33333 9.33334ZM8 12.6667C7.63181 12.6667 7.33333 12.3682 7.33333 12C7.33333 11.6318 7.63181 11.3333 8 11.3333C9.10457 11.3333 10 10.4379 10 9.33334C10 8.96515 10.2985 8.66668 10.6667 8.66668C11.0349 8.66668 11.3333 8.96515 11.3333 9.33334C11.3333 11.1743 9.84095 12.6667 8 12.6667Z" fill="white"/>
</svg>
