<svg width="16" height="16" viewBox="0 0 16 16" fill="none" xmlns="http://www.w3.org/2000/svg">
<path fill-rule="evenodd" clip-rule="evenodd" d="M4.38147 2.19487C4.82569 2.04347 5.29073 2.00012 5.70197 2.00012C6.67846 2.00012 7.41468 2.41701 8.00034 2.83543C8.59063 2.4138 9.32194 2.00012 10.3099 2.00012C10.7491 2.00012 11.1985 2.06152 11.6339 2.20636C14.2935 3.06788 15.1502 5.9314 14.4076 8.28358L14.4045 8.29348L14.4011 8.30329C13.9901 9.47634 13.3182 10.5477 12.4365 11.4242L12.4327 11.4279L12.4289 11.4316C11.1977 12.617 9.81514 13.6877 8.3432 14.5716L7.99569 14.7802L7.65051 14.5677C6.18178 13.6636 4.8253 12.6216 3.57916 11.4266L3.57402 11.4217L3.56899 11.4166C2.69492 10.5418 2.02298 9.47833 1.60593 8.3064L1.60244 8.2966L1.59926 8.28669C0.842357 5.92937 1.70337 3.06929 4.38147 2.19487ZM5.70197 3.33346C5.37309 3.33346 5.06605 3.36969 4.80877 3.45788L4.80382 3.45958L4.79884 3.4612C3.00674 4.04425 2.2727 6.00781 2.86563 7.86929C3.21603 8.8493 3.77819 9.73813 4.50724 10.4693C5.58358 11.5008 6.74798 12.4123 8.00375 13.2154C9.25539 12.4292 10.4367 11.4983 11.5002 10.4749C12.2331 9.74519 12.7944 8.8519 13.1392 7.87242C13.7239 6.00526 12.985 4.04433 11.2209 3.47412L11.2149 3.4722L11.2149 3.47218C10.9325 3.37795 10.6269 3.33346 10.3099 3.33346C9.58271 3.33345 9.07999 3.68344 8.40329 4.19754L7.99934 4.50442L7.59588 4.1969C6.92993 3.68933 6.41619 3.33346 5.70197 3.33346Z" fill="white"/>
</svg>
