<svg width="96" height="24" viewBox="0 0 96 24" fill="none" xmlns="http://www.w3.org/2000/svg">
<path d="M13.1807 11.8606C12.7807 11.8606 12.4207 11.6406 12.2507 11.2806L10.8007 8.39058L10.3807 9.17058C10.1507 9.60058 9.6907 9.87058 9.2007 9.87058H8.4707C8.0607 9.87058 7.7207 9.53058 7.7207 9.12058C7.7207 8.71058 8.0607 8.37058 8.4707 8.37058H9.1107L9.9007 6.91058C10.0907 6.57058 10.4707 6.34058 10.8307 6.36058C11.2207 6.36058 11.5707 6.59058 11.7507 6.93058L13.1807 9.79058L13.5207 9.10058C13.7507 8.64058 14.2007 8.36058 14.7207 8.36058H15.5307C15.9407 8.36058 16.2807 8.70058 16.2807 9.11058C16.2807 9.52058 15.9407 9.86058 15.5307 9.86058H14.8207L14.1107 11.2706C13.9307 11.6406 13.5807 11.8606 13.1807 11.8606Z" fill="#FE476E"/>
<path d="M2.74982 18.6508C2.33982 18.6508 1.99982 18.3108 1.99982 17.9008V12.2008C1.94982 9.49078 2.95982 6.93078 4.83982 5.01078C6.71982 3.10078 9.23982 2.05078 11.9498 2.05078C17.4898 2.05078 21.9998 6.56078 21.9998 12.1008V17.8008C21.9998 18.2108 21.6598 18.5508 21.2498 18.5508C20.8398 18.5508 20.4998 18.2108 20.4998 17.8008V12.1008C20.4998 7.39078 16.6698 3.55078 11.9498 3.55078C9.63982 3.55078 7.49982 4.44078 5.90982 6.06078C4.30982 7.69078 3.45982 9.86078 3.49982 12.1808V17.8908C3.49982 18.3108 3.16982 18.6508 2.74982 18.6508Z" fill="#FE476E"/>
<path d="M5.94 12.4492H5.81C3.71 12.4492 2 14.1592 2 16.2592V18.1392C2 20.2392 3.71 21.9492 5.81 21.9492H5.94C8.04 21.9492 9.75 20.2392 9.75 18.1392V16.2592C9.75 14.1592 8.04 12.4492 5.94 12.4492Z" fill="#FE476E"/>
<path d="M18.19 12.4492H18.06C15.96 12.4492 14.25 14.1592 14.25 16.2592V18.1392C14.25 20.2392 15.96 21.9492 18.06 21.9492H18.19C20.29 21.9492 22 20.2392 22 18.1392V16.2592C22 14.1592 20.29 12.4492 18.19 12.4492Z" fill="#FE476E"/>
<path d="M32.9229 16V8.9541H35.1348L37.6396 14.0127H37.6934L40.1934 8.9541H42.4053V16H40.6963V11.2979H39.9736L41.2676 9.89648L38.2939 16H37.0293L34.0605 9.89648L35.3545 11.2979H34.6318V16H32.9229ZM46.4482 16.1318C45.9437 16.1318 45.5124 16.0391 45.1543 15.8535C44.7995 15.668 44.526 15.3978 44.334 15.043C44.1452 14.6882 44.0508 14.2552 44.0508 13.7441V10.6143H45.8623V13.3633C45.8623 13.8255 45.973 14.1803 46.1943 14.4277C46.4157 14.6751 46.7445 14.7988 47.1807 14.7988C47.4085 14.7988 47.6136 14.7646 47.7959 14.6963C47.9814 14.6247 48.141 14.5254 48.2744 14.3984C48.4079 14.2682 48.5104 14.1104 48.582 13.9248C48.6536 13.7393 48.6895 13.5277 48.6895 13.29V10.6143H50.4961V16H48.6895V14.9648H48.6357C48.5153 15.2025 48.3509 15.4092 48.1426 15.585C47.9342 15.7575 47.6868 15.8926 47.4004 15.9902C47.1139 16.0846 46.7965 16.1318 46.4482 16.1318ZM55.0518 16.1318C54.3877 16.1318 53.8197 16.0651 53.3477 15.9316C52.8757 15.7949 52.5062 15.6012 52.2393 15.3506C51.9756 15.0967 51.8226 14.7988 51.7803 14.457L51.7754 14.418L53.5479 14.4229L53.5576 14.4473C53.6162 14.6458 53.7725 14.7939 54.0264 14.8916C54.2803 14.9893 54.6286 15.0381 55.0713 15.0381C55.335 15.0381 55.5579 15.0169 55.7402 14.9746C55.9225 14.929 56.0609 14.8639 56.1553 14.7793C56.2529 14.6947 56.3018 14.5921 56.3018 14.4717V14.4668C56.3018 14.3138 56.235 14.1999 56.1016 14.125C55.9681 14.0469 55.7337 13.9899 55.3984 13.9541L53.9482 13.8125C53.4958 13.7637 53.1214 13.6725 52.8252 13.5391C52.529 13.4056 52.3076 13.2314 52.1611 13.0166C52.0179 12.7985 51.9463 12.5413 51.9463 12.2451V12.2354C51.9463 11.8675 52.0618 11.5534 52.293 11.293C52.5273 11.0326 52.8626 10.834 53.2988 10.6973C53.735 10.5573 54.2575 10.4873 54.8662 10.4873C55.501 10.4873 56.0397 10.5557 56.4824 10.6924C56.9284 10.8291 57.2734 11.0228 57.5176 11.2734C57.7617 11.5208 57.8984 11.8138 57.9277 12.1523L57.9326 12.1963H56.2627L56.2578 12.167C56.2188 11.9847 56.0804 11.8415 55.8428 11.7373C55.6051 11.6299 55.2861 11.5762 54.8857 11.5762C54.6351 11.5762 54.4202 11.599 54.2412 11.6445C54.0654 11.6868 53.932 11.7503 53.8408 11.835C53.7497 11.9196 53.7041 12.0221 53.7041 12.1426V12.1475C53.7041 12.2451 53.7318 12.3265 53.7871 12.3916C53.8457 12.4567 53.9401 12.5104 54.0703 12.5527C54.2005 12.5918 54.373 12.6243 54.5879 12.6504L56.0723 12.7871C56.7917 12.862 57.3109 13.0247 57.6299 13.2754C57.9489 13.5228 58.1084 13.8662 58.1084 14.3057V14.3105C58.1084 14.6882 57.9863 15.0137 57.7422 15.2871C57.498 15.5605 57.1481 15.7705 56.6924 15.917C56.2399 16.0602 55.693 16.1318 55.0518 16.1318ZM59.3682 16V10.6191H61.1797V16H59.3682ZM60.2715 9.94531C59.985 9.94531 59.749 9.86393 59.5635 9.70117C59.3812 9.53516 59.29 9.32845 59.29 9.08105C59.29 8.83691 59.3812 8.63346 59.5635 8.4707C59.749 8.30794 59.985 8.22656 60.2715 8.22656C60.5612 8.22656 60.7972 8.30794 60.9795 8.4707C61.1618 8.63346 61.2529 8.83691 61.2529 9.08105C61.2529 9.32845 61.1618 9.53516 60.9795 9.70117C60.7972 9.86393 60.5612 9.94531 60.2715 9.94531ZM65.8428 16.1318C65.1364 16.1318 64.5277 16.0195 64.0166 15.7949C63.5055 15.5671 63.1117 15.2432 62.835 14.8232C62.5583 14.4001 62.4199 13.8955 62.4199 13.3096V13.2998C62.4199 12.7139 62.5583 12.2109 62.835 11.791C63.1117 11.3711 63.5055 11.0488 64.0166 10.8242C64.5277 10.5996 65.1364 10.4873 65.8428 10.4873C66.4548 10.4873 66.9919 10.5752 67.4541 10.751C67.9163 10.9268 68.2874 11.1774 68.5674 11.5029C68.8506 11.8252 69.0264 12.2109 69.0947 12.6602L69.0996 12.7041H67.3711L67.3613 12.6748C67.2799 12.3818 67.1107 12.1556 66.8535 11.9961C66.5964 11.8333 66.2741 11.752 65.8867 11.752C65.5449 11.752 65.252 11.8138 65.0078 11.9375C64.7669 12.0579 64.5814 12.2337 64.4512 12.4648C64.3242 12.6927 64.2607 12.971 64.2607 13.2998V13.3096C64.2607 13.6383 64.3242 13.9183 64.4512 14.1494C64.5814 14.3805 64.7669 14.5579 65.0078 14.6816C65.252 14.8021 65.5449 14.8623 65.8867 14.8623C66.2708 14.8623 66.5898 14.7858 66.8438 14.6328C67.1009 14.4798 67.2734 14.2552 67.3613 13.959L67.3711 13.9297L69.0947 13.9248L69.0898 13.9736C69.0215 14.4163 68.8457 14.7988 68.5625 15.1211C68.2826 15.4434 67.9115 15.6924 67.4492 15.8682C66.987 16.0439 66.4515 16.1318 65.8428 16.1318ZM69.7881 16L73.0303 8.9541H74.7783V10.4434H74.1826L71.7656 16H69.7881ZM71.4727 14.3984L72.0146 13.1387H76.3359L76.873 14.3984H71.4727ZM76.6484 16L74.2314 10.4434V8.9541H75.3789L78.626 16H76.6484ZM79.7979 17.7676V10.6143H81.6094V11.5811H81.6582C81.7917 11.363 81.9658 11.1742 82.1807 11.0146C82.3988 10.8551 82.6559 10.7298 82.9521 10.6387C83.2484 10.5443 83.582 10.4971 83.9531 10.4971C84.5228 10.4971 85.0208 10.6143 85.4473 10.8486C85.877 11.083 86.209 11.4102 86.4434 11.8301C86.681 12.25 86.7998 12.7415 86.7998 13.3047V13.3145C86.7998 13.8776 86.6826 14.3708 86.4482 14.7939C86.2139 15.2139 85.8818 15.541 85.4521 15.7754C85.0257 16.0065 84.526 16.1221 83.9531 16.1221C83.5853 16.1221 83.2516 16.0765 82.9521 15.9854C82.6559 15.891 82.3988 15.7624 82.1807 15.5996C81.9658 15.4336 81.7917 15.2432 81.6582 15.0283H81.6094V17.7676H79.7979ZM83.2939 14.8232C83.6357 14.8232 83.9303 14.763 84.1777 14.6426C84.4284 14.5221 84.6221 14.3496 84.7588 14.125C84.8955 13.8971 84.9639 13.627 84.9639 13.3145V13.3047C84.9639 12.9889 84.8955 12.7188 84.7588 12.4941C84.6221 12.2663 84.4284 12.0921 84.1777 11.9717C83.9303 11.8512 83.6357 11.791 83.2939 11.791C82.9489 11.791 82.6494 11.8529 82.3955 11.9766C82.1449 12.1003 81.9495 12.2744 81.8096 12.499C81.6729 12.7236 81.6045 12.9906 81.6045 13.2998V13.3145C81.6045 13.6237 81.6729 13.8923 81.8096 14.1201C81.9495 14.3447 82.1449 14.5189 82.3955 14.6426C82.6494 14.763 82.9489 14.8232 83.2939 14.8232ZM88.0693 17.7676V10.6143H89.8809V11.5811H89.9297C90.0632 11.363 90.2373 11.1742 90.4521 11.0146C90.6702 10.8551 90.9274 10.7298 91.2236 10.6387C91.5199 10.5443 91.8535 10.4971 92.2246 10.4971C92.7943 10.4971 93.2923 10.6143 93.7188 10.8486C94.1484 11.083 94.4805 11.4102 94.7148 11.8301C94.9525 12.25 95.0713 12.7415 95.0713 13.3047V13.3145C95.0713 13.8776 94.9541 14.3708 94.7197 14.7939C94.4854 15.2139 94.1533 15.541 93.7236 15.7754C93.2972 16.0065 92.7975 16.1221 92.2246 16.1221C91.8568 16.1221 91.5231 16.0765 91.2236 15.9854C90.9274 15.891 90.6702 15.7624 90.4521 15.5996C90.2373 15.4336 90.0632 15.2432 89.9297 15.0283H89.8809V17.7676H88.0693ZM91.5654 14.8232C91.9072 14.8232 92.2018 14.763 92.4492 14.6426C92.6999 14.5221 92.8936 14.3496 93.0303 14.125C93.167 13.8971 93.2354 13.627 93.2354 13.3145V13.3047C93.2354 12.9889 93.167 12.7188 93.0303 12.4941C92.8936 12.2663 92.6999 12.0921 92.4492 11.9717C92.2018 11.8512 91.9072 11.791 91.5654 11.791C91.2204 11.791 90.9209 11.8529 90.667 11.9766C90.4163 12.1003 90.221 12.2744 90.0811 12.499C89.9443 12.7236 89.876 12.9906 89.876 13.2998V13.3145C89.876 13.6237 89.9443 13.8923 90.0811 14.1201C90.221 14.3447 90.4163 14.5189 90.667 14.6426C90.9209 14.763 91.2204 14.8232 91.5654 14.8232Z" fill="#E2E8F0"/>
</svg>
