<svg width="202" height="32" viewBox="0 0 202 32" fill="none" xmlns="http://www.w3.org/2000/svg">
<path d="M192.667 9C192.667 8.26362 193.264 7.66667 194 7.66667C194.736 7.66667 195.333 8.26362 195.333 9V22.3333C195.333 23.0697 194.736 23.6667 194 23.6667C193.264 23.6667 192.667 23.0697 192.667 22.3333V9ZM198 13.3333C198 12.597 198.597 12 199.333 12C200.07 12 200.667 12.597 200.667 13.3333V18.6667C200.667 19.403 200.07 20 199.333 20C198.597 20 198 19.403 198 18.6667V13.3333ZM187.333 13C187.333 12.2636 187.93 11.6667 188.667 11.6667C189.403 11.6667 190 12.2636 190 13V18.3333C190 19.0697 189.403 19.6667 188.667 19.6667C187.93 19.6667 187.333 19.0697 187.333 18.3333V13ZM176.667 9.33333C176.667 8.59695 177.264 8 178 8C178.736 8 179.333 8.59695 179.333 9.33333V22.6667C179.333 23.403 178.736 24 178 24C177.264 24 176.667 23.403 176.667 22.6667V9.33333ZM171.333 13.3333C171.333 12.597 171.93 12 172.667 12C173.403 12 174 12.597 174 13.3333V18.6667C174 19.403 173.403 20 172.667 20C171.93 20 171.333 19.403 171.333 18.6667V13.3333ZM182 5.33333C182 4.59695 182.597 4 183.333 4C184.07 4 184.667 4.59695 184.667 5.33333V26.6667C184.667 27.403 184.07 28 183.333 28C182.597 28 182 27.403 182 26.6667V5.33333Z" fill="url(#paint0_linear_381_200)"/>
<path d="M158.667 9C158.667 8.26362 159.264 7.66667 160 7.66667C160.736 7.66667 161.333 8.26362 161.333 9V22.3333C161.333 23.0697 160.736 23.6667 160 23.6667C159.264 23.6667 158.667 23.0697 158.667 22.3333V9ZM164 13.3333C164 12.597 164.597 12 165.333 12C166.07 12 166.667 12.597 166.667 13.3333V18.6667C166.667 19.403 166.07 20 165.333 20C164.597 20 164 19.403 164 18.6667V13.3333ZM153.333 13C153.333 12.2636 153.93 11.6667 154.667 11.6667C155.403 11.6667 156 12.2636 156 13V18.3333C156 19.0697 155.403 19.6667 154.667 19.6667C153.93 19.6667 153.333 19.0697 153.333 18.3333V13ZM142.667 9.33333C142.667 8.59695 143.264 8 144 8C144.736 8 145.333 8.59695 145.333 9.33333V22.6667C145.333 23.403 144.736 24 144 24C143.264 24 142.667 23.403 142.667 22.6667V9.33333ZM137.333 13.3333C137.333 12.597 137.93 12 138.667 12C139.403 12 140 12.597 140 13.3333V18.6667C140 19.403 139.403 20 138.667 20C137.93 20 137.333 19.403 137.333 18.6667V13.3333ZM148 5.33333C148 4.59695 148.597 4 149.333 4C150.07 4 150.667 4.59695 150.667 5.33333V26.6667C150.667 27.403 150.07 28 149.333 28C148.597 28 148 27.403 148 26.6667V5.33333Z" fill="url(#paint1_linear_381_200)"/>
<path d="M124.667 9C124.667 8.26362 125.264 7.66667 126 7.66667C126.736 7.66667 127.333 8.26362 127.333 9V22.3333C127.333 23.0697 126.736 23.6667 126 23.6667C125.264 23.6667 124.667 23.0697 124.667 22.3333V9ZM130 13.3333C130 12.597 130.597 12 131.333 12C132.07 12 132.667 12.597 132.667 13.3333V18.6667C132.667 19.403 132.07 20 131.333 20C130.597 20 130 19.403 130 18.6667V13.3333ZM119.333 13C119.333 12.2636 119.93 11.6667 120.667 11.6667C121.403 11.6667 122 12.2636 122 13V18.3333C122 19.0697 121.403 19.6667 120.667 19.6667C119.93 19.6667 119.333 19.0697 119.333 18.3333V13ZM108.667 9.33333C108.667 8.59695 109.264 8 110 8C110.736 8 111.333 8.59695 111.333 9.33333V22.6667C111.333 23.403 110.736 24 110 24C109.264 24 108.667 23.403 108.667 22.6667V9.33333ZM103.333 13.3333C103.333 12.597 103.93 12 104.667 12C105.403 12 106 12.597 106 13.3333V18.6667C106 19.403 105.403 20 104.667 20C103.93 20 103.333 19.403 103.333 18.6667V13.3333ZM114 5.33333C114 4.59695 114.597 4 115.333 4C116.07 4 116.667 4.59695 116.667 5.33333V26.6667C116.667 27.403 116.07 28 115.333 28C114.597 28 114 27.403 114 26.6667V5.33333Z" fill="url(#paint2_linear_381_200)"/>
<path d="M90.6667 9C90.6667 8.26362 91.2636 7.66667 92 7.66667C92.7364 7.66667 93.3333 8.26362 93.3333 9V22.3333C93.3333 23.0697 92.7364 23.6667 92 23.6667C91.2636 23.6667 90.6667 23.0697 90.6667 22.3333V9ZM96 13.3333C96 12.597 96.597 12 97.3333 12C98.0697 12 98.6667 12.597 98.6667 13.3333V18.6667C98.6667 19.403 98.0697 20 97.3333 20C96.597 20 96 19.403 96 18.6667V13.3333ZM85.3333 13C85.3333 12.2636 85.9303 11.6667 86.6667 11.6667C87.4031 11.6667 88 12.2636 88 13V18.3333C88 19.0697 87.4031 19.6667 86.6667 19.6667C85.9303 19.6667 85.3333 19.0697 85.3333 18.3333V13ZM74.6667 9.33333C74.6667 8.59695 75.2636 8 76 8C76.7364 8 77.3333 8.59695 77.3333 9.33333V22.6667C77.3333 23.403 76.7364 24 76 24C75.2636 24 74.6667 23.403 74.6667 22.6667V9.33333ZM69.3333 13.3333C69.3333 12.597 69.9303 12 70.6667 12C71.4031 12 72 12.597 72 13.3333V18.6667C72 19.403 71.4031 20 70.6667 20C69.9303 20 69.3333 19.403 69.3333 18.6667V13.3333ZM80 5.33333C80 4.59695 80.597 4 81.3333 4C82.0697 4 82.6667 4.59695 82.6667 5.33333V26.6667C82.6667 27.403 82.0697 28 81.3333 28C80.597 28 80 27.403 80 26.6667V5.33333Z" fill="url(#paint3_linear_381_200)"/>
<path d="M56.6667 9C56.6667 8.26362 57.2636 7.66667 58 7.66667C58.7364 7.66667 59.3333 8.26362 59.3333 9V22.3333C59.3333 23.0697 58.7364 23.6667 58 23.6667C57.2636 23.6667 56.6667 23.0697 56.6667 22.3333V9ZM62 13.3333C62 12.597 62.597 12 63.3333 12C64.0697 12 64.6667 12.597 64.6667 13.3333V18.6667C64.6667 19.403 64.0697 20 63.3333 20C62.597 20 62 19.403 62 18.6667V13.3333ZM51.3333 13C51.3333 12.2636 51.9303 11.6667 52.6667 11.6667C53.4031 11.6667 54 12.2636 54 13V18.3333C54 19.0697 53.4031 19.6667 52.6667 19.6667C51.9303 19.6667 51.3333 19.0697 51.3333 18.3333V13ZM40.6667 9.33333C40.6667 8.59695 41.2636 8 42 8C42.7364 8 43.3333 8.59695 43.3333 9.33333V22.6667C43.3333 23.403 42.7364 24 42 24C41.2636 24 40.6667 23.403 40.6667 22.6667V9.33333ZM35.3333 13.3333C35.3333 12.597 35.9303 12 36.6667 12C37.4031 12 38 12.597 38 13.3333V18.6667C38 19.403 37.4031 20 36.6667 20C35.9303 20 35.3333 19.403 35.3333 18.6667V13.3333ZM46 5.33333C46 4.59695 46.597 4 47.3333 4C48.0697 4 48.6667 4.59695 48.6667 5.33333V26.6667C48.6667 27.403 48.0697 28 47.3333 28C46.597 28 46 27.403 46 26.6667V5.33333Z" fill="url(#paint4_linear_381_200)"/>
<path d="M22.6667 9C22.6667 8.26362 23.2636 7.66667 24 7.66667C24.7364 7.66667 25.3333 8.26362 25.3333 9V22.3333C25.3333 23.0697 24.7364 23.6667 24 23.6667C23.2636 23.6667 22.6667 23.0697 22.6667 22.3333V9ZM28 13.3333C28 12.597 28.597 12 29.3333 12C30.0697 12 30.6667 12.597 30.6667 13.3333V18.6667C30.6667 19.403 30.0697 20 29.3333 20C28.597 20 28 19.403 28 18.6667V13.3333ZM17.3333 13C17.3333 12.2636 17.9303 11.6667 18.6667 11.6667C19.4031 11.6667 20 12.2636 20 13V18.3333C20 19.0697 19.4031 19.6667 18.6667 19.6667C17.9303 19.6667 17.3333 19.0697 17.3333 18.3333V13ZM6.66668 9.33333C6.66668 8.59695 7.26363 8 8.00001 8C8.73639 8 9.33334 8.59695 9.33334 9.33333V22.6667C9.33334 23.403 8.73639 24 8.00001 24C7.26363 24 6.66668 23.403 6.66668 22.6667V9.33333ZM1.33334 13.3333C1.33334 12.597 1.9303 12 2.66668 12C3.40306 12 4.00001 12.597 4.00001 13.3333V18.6667C4.00001 19.403 3.40306 20 2.66668 20C1.9303 20 1.33334 19.403 1.33334 18.6667V13.3333ZM12 5.33333C12 4.59695 12.597 4 13.3333 4C14.0697 4 14.6667 4.59695 14.6667 5.33333V26.6667C14.6667 27.403 14.0697 28 13.3333 28C12.597 28 12 27.403 12 26.6667V5.33333Z" fill="url(#paint5_linear_381_200)"/>
<defs>
<linearGradient id="paint0_linear_381_200" x1="186" y1="4" x2="186" y2="28" gradientUnits="userSpaceOnUse">
<stop stop-color="#4D25AE"/>
<stop offset="1" stop-color="#E33E9F"/>
</linearGradient>
<linearGradient id="paint1_linear_381_200" x1="152" y1="4" x2="152" y2="28" gradientUnits="userSpaceOnUse">
<stop stop-color="#4D25AE"/>
<stop offset="1" stop-color="#E33E9F"/>
</linearGradient>
<linearGradient id="paint2_linear_381_200" x1="118" y1="4" x2="118" y2="28" gradientUnits="userSpaceOnUse">
<stop stop-color="#4D25AE"/>
<stop offset="1" stop-color="#E33E9F"/>
</linearGradient>
<linearGradient id="paint3_linear_381_200" x1="84" y1="4" x2="84" y2="28" gradientUnits="userSpaceOnUse">
<stop stop-color="#4D25AE"/>
<stop offset="1" stop-color="#E33E9F"/>
</linearGradient>
<linearGradient id="paint4_linear_381_200" x1="50" y1="4" x2="50" y2="28" gradientUnits="userSpaceOnUse">
<stop stop-color="#4D25AE"/>
<stop offset="1" stop-color="#E33E9F"/>
</linearGradient>
<linearGradient id="paint5_linear_381_200" x1="16" y1="4" x2="16" y2="28" gradientUnits="userSpaceOnUse">
<stop stop-color="#4D25AE"/>
<stop offset="1" stop-color="#E33E9F"/>
</linearGradient>
</defs>
</svg>
