<svg width="54" height="54" viewBox="0 0 54 54" fill="none" xmlns="http://www.w3.org/2000/svg">
<path d="M26.9168 0.333313C12.1967 0.333313 0.25 12.28 0.25 27C0.25 41.72 12.1967 53.6666 26.9168 53.6666C41.6368 53.6666 53.5835 41.72 53.5835 27C53.5835 12.28 41.6635 0.333313 26.9168 0.333313ZM23.5835 35.08C23.5835 36.36 23.0501 36.8666 21.6899 36.8666H18.2233C16.8633 36.8666 16.33 36.36 16.33 35.08V18.92C16.33 17.64 16.8633 17.1333 18.2233 17.1333H21.6633C23.0232 17.1333 23.5565 17.64 23.5565 18.92V35.08H23.5835ZM37.6632 35.08C37.6632 36.36 37.1299 36.8666 35.7699 36.8666H32.3299C30.9699 36.8666 30.4365 36.36 30.4365 35.08V18.92C30.4365 17.64 30.9699 17.1333 32.3299 17.1333H35.7699C37.1299 17.1333 37.6632 17.64 37.6632 18.92V35.08Z" fill="#FE476E"/>
</svg>
