<svg width="16" height="16" viewBox="0 0 16 16" fill="none" xmlns="http://www.w3.org/2000/svg">
<g clip-path="url(#clip0_363_124)">
<path d="M11.3333 15.1666H4.66665C2.37331 15.1666 0.833313 13.6266 0.833313 11.3333V6.66665C0.833313 4.37331 2.37331 2.83331 4.66665 2.83331H11.3333C13.6266 2.83331 15.1666 4.37331 15.1666 6.66665V11.3333C15.1666 13.6266 13.6266 15.1666 11.3333 15.1666ZM4.66665 3.83331C2.94665 3.83331 1.83331 4.94665 1.83331 6.66665V11.3333C1.83331 13.0533 2.94665 14.1666 4.66665 14.1666H11.3333C13.0533 14.1666 14.1666 13.0533 14.1666 11.3333V6.66665C14.1666 4.94665 13.0533 3.83331 11.3333 3.83331H4.66665Z" fill="white"/>
<path d="M4.66669 3.83331C4.39335 3.83331 4.16669 3.60665 4.16669 3.33331V1.33331C4.16669 1.05998 4.39335 0.833313 4.66669 0.833313C4.94002 0.833313 5.16669 1.05998 5.16669 1.33331V3.33331C5.16669 3.60665 4.94002 3.83331 4.66669 3.83331Z" fill="white"/>
<path d="M5.66667 11.1666C4.47333 11.1666 3.5 10.1933 3.5 8.99998C3.5 7.80665 4.47333 6.83331 5.66667 6.83331C6.86 6.83331 7.83333 7.80665 7.83333 8.99998C7.83333 10.1933 6.86 11.1666 5.66667 11.1666ZM5.66667 7.83331C5.02667 7.83331 4.5 8.35998 4.5 8.99998C4.5 9.63998 5.02667 10.1666 5.66667 10.1666C6.30667 10.1666 6.83333 9.63998 6.83333 8.99998C6.83333 8.35998 6.30667 7.83331 5.66667 7.83331Z" fill="white"/>
<path d="M12.3334 7.83331H9.66669C9.39335 7.83331 9.16669 7.60665 9.16669 7.33331C9.16669 7.05998 9.39335 6.83331 9.66669 6.83331H12.3334C12.6067 6.83331 12.8334 7.05998 12.8334 7.33331C12.8334 7.60665 12.6067 7.83331 12.3334 7.83331Z" fill="white"/>
<path d="M10 10.5H9.66669C9.39335 10.5 9.16669 10.2733 9.16669 10C9.16669 9.72667 9.39335 9.5 9.66669 9.5H10C10.2734 9.5 10.5 9.72667 10.5 10C10.5 10.2733 10.2734 10.5 10 10.5Z" fill="white"/>
<path d="M12.3333 10.5H12C11.7267 10.5 11.5 10.2733 11.5 10C11.5 9.72667 11.7267 9.5 12 9.5H12.3333C12.6067 9.5 12.8333 9.72667 12.8333 10C12.8333 10.2733 12.6067 10.5 12.3333 10.5Z" fill="white"/>
</g>
<defs>
<clipPath id="clip0_363_124">
<rect width="16" height="16" fill="white"/>
</clipPath>
</defs>
</svg>
