<svg width="24" height="24" viewBox="0 0 24 24" fill="none" xmlns="http://www.w3.org/2000/svg">
<g clip-path="url(#clip0_363_198)">
<path d="M22.92 14.62C22.8724 14.4973 22.801 14.3851 22.71 14.29L19.71 11.29C19.5217 11.1017 19.2663 10.9959 19 10.9959C18.7337 10.9959 18.4783 11.1017 18.29 11.29C18.1017 11.4783 17.9959 11.7337 17.9959 12C17.9959 12.2663 18.1017 12.5217 18.29 12.71L19.59 14H15C14.8498 13.9993 14.7017 13.9648 14.5666 13.899C14.4316 13.8332 14.3131 13.7379 14.22 13.62L11.72 10.5L14.22 7.38C14.3131 7.26215 14.4316 7.16679 14.5666 7.101C14.7017 7.03522 14.8498 7.00069 15 7H19.63L18.33 8.29C18.2363 8.38297 18.1619 8.49357 18.1111 8.61543C18.0603 8.73728 18.0342 8.86799 18.0342 9C18.0342 9.13201 18.0603 9.26272 18.1111 9.38458C18.1619 9.50644 18.2363 9.61704 18.33 9.71C18.423 9.80373 18.5336 9.87812 18.6554 9.92889C18.7773 9.97966 18.908 10.0058 19.04 10.0058C19.172 10.0058 19.3027 9.97966 19.4246 9.92889C19.5464 9.87812 19.657 9.80373 19.75 9.71L22.75 6.71C22.841 6.6149 22.9124 6.50275 22.96 6.38C23.06 6.13654 23.06 5.86346 22.96 5.62C22.9124 5.49725 22.841 5.38511 22.75 5.29L19.75 2.29C19.5617 2.1017 19.3063 1.99591 19.04 1.99591C18.7737 1.99591 18.5183 2.1017 18.33 2.29C18.1417 2.47831 18.0359 2.7337 18.0359 3C18.0359 3.2663 18.1417 3.5217 18.33 3.71L19.59 5H15C14.5502 5.00088 14.1064 5.1029 13.7013 5.2985C13.2963 5.4941 12.9404 5.77828 12.66 6.13L10.4 8.9L7.4 5.12C7.11235 4.7621 6.74638 4.475 6.33029 4.28082C5.91419 4.08664 5.45908 3.99057 5 4H1C0.734784 4 0.48043 4.10536 0.292893 4.2929C0.105357 4.48043 0 4.73479 0 5C0 5.26522 0.105357 5.51957 0.292893 5.70711C0.48043 5.89465 0.734784 6 1 6H5C5.15021 6.00069 5.29832 6.03522 5.43336 6.101C5.56839 6.16679 5.68687 6.26215 5.78 6.38L9.08 10.5L5.78 14.62C5.68687 14.7379 5.56839 14.8332 5.43336 14.899C5.29832 14.9648 5.15021 14.9993 5 15H1C0.734784 15 0.48043 15.1054 0.292893 15.2929C0.105357 15.4804 0 15.7348 0 16C0 16.2652 0.105357 16.5196 0.292893 16.7071C0.48043 16.8946 0.734784 17 1 17H5C5.4498 16.9991 5.89365 16.8971 6.2987 16.7015C6.70374 16.5059 7.05962 16.2217 7.34 15.87L10.34 12.1L12.56 14.88C12.8518 15.2434 13.2242 15.5338 13.6477 15.7282C14.0712 15.9226 14.5342 16.0157 15 16H19.63L18.33 17.29C18.2363 17.383 18.1619 17.4936 18.1111 17.6154C18.0603 17.7373 18.0342 17.868 18.0342 18C18.0342 18.132 18.0603 18.2627 18.1111 18.3846C18.1619 18.5064 18.2363 18.617 18.33 18.71C18.423 18.8037 18.5336 18.8781 18.6554 18.9289C18.7773 18.9797 18.908 19.0058 19.04 19.0058C19.172 19.0058 19.3027 18.9797 19.4246 18.9289C19.5464 18.8781 19.657 18.8037 19.75 18.71L22.75 15.71C22.841 15.6149 22.9124 15.5028 22.96 15.38C23.0474 15.1313 23.033 14.8582 22.92 14.62Z" fill="white"/>
</g>
<defs>
<clipPath id="clip0_363_198">
<rect width="24" height="24" fill="white"/>
</clipPath>
</defs>
</svg>
