<svg width="14" height="14" viewBox="0 0 14 14" fill="none" xmlns="http://www.w3.org/2000/svg">
<path d="M12 7V10.3333C12 11.0406 11.719 11.7189 11.219 12.219C10.7189 12.719 10.0406 13 9.33333 13H4.66667C3.95942 13 3.28115 12.719 2.78105 12.219C2.28095 11.7189 2 11.0406 2 10.3333V7" stroke="white" stroke-linecap="round" stroke-linejoin="round"/>
<path d="M4.25335 1C3.6938 1.00089 3.14871 1.17777 2.69525 1.5056C2.24179 1.83343 1.90295 2.2956 1.72669 2.82667L1.06002 4.73333C1.00158 4.90963 0.972306 5.09428 0.973355 5.28C0.975111 5.73563 1.15689 6.1721 1.47907 6.49428C1.80125 6.81647 2.23772 6.99824 2.69335 7C3.23832 7.00117 3.766 6.8088 4.18235 6.45716C4.59869 6.10553 4.87665 5.61748 4.96669 5.08L5.63335 1H4.25335Z" stroke="white" stroke-linecap="round" stroke-linejoin="round"/>
<path d="M9.74675 1.00009C10.3109 0.995357 10.8619 1.16963 11.3207 1.49786C11.7795 1.82609 12.1224 2.29135 12.3001 2.82676L12.9668 4.73343C13.0252 4.90972 13.0545 5.09437 13.0534 5.28009C13.0517 5.73573 12.8699 6.1722 12.5477 6.49438C12.2255 6.81656 11.7891 6.99834 11.3334 7.00009C10.7896 6.99969 10.2635 6.8066 9.84855 6.4551C9.43359 6.1036 9.1566 5.61644 9.06675 5.08009L8.40009 1.00009H9.74675Z" stroke="white" stroke-linecap="round" stroke-linejoin="round"/>
<path d="M5.66664 1L5.0533 4.7C5.01045 4.98221 5.02851 5.27032 5.10625 5.54496C5.184 5.81961 5.31963 6.07444 5.50403 6.29232C5.68844 6.5102 5.91735 6.68608 6.17537 6.80814C6.4334 6.9302 6.71456 6.99562 6.99997 7C7.28707 6.99846 7.57048 6.93513 7.83092 6.81431C8.09137 6.69349 8.32275 6.51801 8.50934 6.2998C8.69592 6.08159 8.83334 5.82576 8.91225 5.54971C8.99116 5.27366 9.00971 4.98386 8.96664 4.7L8.3533 1H5.66664Z" stroke="white" stroke-linecap="round" stroke-linejoin="round"/>
</svg>
