<svg width="16" height="16" viewBox="0 0 16 16" fill="none" xmlns="http://www.w3.org/2000/svg">
<path d="M10.7933 1.33337H5.20665C2.77998 1.33337 1.33331 2.78004 1.33331 5.20671V10.7934C1.33331 12.6667 2.19331 13.9534 3.70665 14.44C4.14665 14.5934 4.65331 14.6667 5.20665 14.6667H10.7933C11.3466 14.6667 11.8533 14.5934 12.2933 14.44C13.8066 13.9534 14.6666 12.6667 14.6666 10.7934V5.20671C14.6666 2.78004 13.22 1.33337 10.7933 1.33337ZM13.6666 10.7934C13.6666 12.22 13.1066 13.12 11.98 13.4934C11.3333 12.22 9.79998 11.3134 7.99998 11.3134C6.19998 11.3134 4.67331 12.2134 4.01998 13.4934H4.01331C2.89998 13.1334 2.33331 12.2267 2.33331 10.8V5.20671C2.33331 3.32671 3.32665 2.33337 5.20665 2.33337H10.7933C12.6733 2.33337 13.6666 3.32671 13.6666 5.20671V10.7934Z" fill="white"/>
<path d="M8.00124 5.33337C6.68124 5.33337 5.61456 6.40004 5.61456 7.72004C5.61456 9.04004 6.68124 10.1134 8.00124 10.1134C9.32124 10.1134 10.3879 9.04004 10.3879 7.72004C10.3879 6.40004 9.32124 5.33337 8.00124 5.33337Z" fill="white"/>
</svg>
