<svg width="20" height="20" viewBox="0 0 20 20" fill="none" xmlns="http://www.w3.org/2000/svg">
<path fill-rule="evenodd" clip-rule="evenodd" d="M6.55284 0.00012207C5.93598 0.00012207 5.23841 0.0651376 4.57209 0.292241C0.554939 1.60387 -0.736586 5.894 0.398766 9.42998L0.403537 9.44483L0.408768 9.45953C1.03435 11.2174 2.04226 12.8127 3.35336 14.1249L3.36091 14.1324L3.36862 14.1398C5.23782 15.9323 7.27254 17.4953 9.47564 18.8515L9.99341 19.1703L10.5147 18.8573C12.7226 17.5315 14.7964 15.9254 16.6432 14.1474L16.649 14.1419L16.6547 14.1362C17.9771 12.8215 18.9851 11.2144 19.6015 9.45487L19.6066 9.44017L19.6113 9.42531C20.7251 5.89703 19.4401 1.60176 15.4507 0.309479C14.7976 0.0922122 14.1236 0.00012207 13.4648 0.00012207C11.9828 0.000112295 10.8858 0.620636 10.0004 1.25309C9.1219 0.625448 8.01757 0.00012207 6.55284 0.00012207Z" fill="#FE476E"/>
</svg>
